<?xml version="1.0" encoding="UTF-8"?>
<svg width="1999px" height="590px" viewBox="0 0 1999 590" version="1.1" xmlns="http://www.w3.org/2000/svg" xmlns:xlink="http://www.w3.org/1999/xlink">
    <title>blue</title>
    <g id="Final_Logo_Website" stroke="none" stroke-width="1" fill="none" fill-rule="evenodd">
        <g id="blue" transform="translate(15, 15)">
            <g id="Group">
                <ellipse id="Oval-Copy" stroke="#70B56A" stroke-width="29.154519" cx="279.851073" cy="280" rx="279.851073" ry="280"></ellipse>
                <g id="Group-3" transform="translate(5.8302, 62.0553)" fill="#70B56A">
                    <g id="Group-4" transform="translate(0, 95.4696)">
                        <path d="M10.7009683,0 C57.5896334,70.5642562 104.478299,141.128512 151.366964,211.692769 C167.407237,235.832291 199.979398,242.39803 224.118921,226.357756 C224.260597,226.263615 224.401814,226.168785 224.542569,226.073271 L480.730839,52.226181 L480.730839,52.226181 L487.199199,63.0002645 C498.413062,81.6787408 492.98073,105.87163 474.857786,117.962747 L258.329457,262.424329 C207.43154,296.382195 138.642569,282.648407 104.685564,231.749915 C104.17951,230.991385 103.682839,230.226637 103.197563,229.454646 C95.5212083,217.309403 87.9947582,205.250316 80.6182128,193.277384 C63.7071769,165.828942 36.8344393,123.564266 0,66.4833577 C7.13397885,22.1611192 10.7009683,0 10.7009683,0 Z" id="Path-3"></path>
                        <path d="M146.861805,166.279668 L226.231485,118.207946 C245.507451,106.520792 270.605141,112.68446 282.283292,131.96588 C282.28511,131.968881 282.286928,131.971883 282.279739,131.980337 L285.974392,138.084013 L285.974392,138.084013 L210.437214,182.428595 C188.656152,195.215307 160.654527,188.344025 147.266613,166.927245 L146.861805,166.279668 L146.861805,166.279668 Z" id="Path-4"></path>
                        <path d="M104.057931,90.4463348 L183.427612,42.374613 C202.703578,30.6874586 227.801268,36.8511264 239.479419,56.1325463 C239.481237,56.1355481 239.483054,56.1385501 239.475866,56.1470036 L243.170519,62.2506793 L243.170519,62.2506793 L167.633341,106.595262 C145.852279,119.381973 117.850653,112.510692 104.46274,91.0939117 L104.057931,90.4463348 L104.057931,90.4463348 Z" id="Path-4-Copy-3"></path>
                    </g>
                    <g id="Group-2" transform="translate(392.2775, 221.6959) scale(-1, 1) rotate(66) translate(-392.2775, -221.6959)translate(219.2985, 65.3599)">
                        <path d="M300.644292,312.672033 C252.254909,234.403898 203.865526,156.135762 155.476143,77.8676259 C140.235067,53.2157184 107.895415,45.5867319 83.2435071,60.8278077 C82.6170985,61.2150857 81.9989117,61.615507 81.3893574,62.0288054 C67.2958515,71.5846803 53.2023456,81.1405553 39.1088397,90.6964302 C29.6726701,97.0944732 20.2365005,103.492516 10.8003309,109.890559 L6.30422009,102.775378 C-5.31678244,84.3849208 -0.47186498,60.1120333 17.3188897,47.5922221 L62.3613561,15.8946811 C101.742186,-11.818621 156.132727,-2.36022071 183.846029,37.0206093 C184.994439,38.6525094 186.086489,40.3233526 187.120246,42.0301887 C206.574373,74.1507577 225.704838,105.22681 244.511639,135.258346 C266.419036,170.241049 300.234545,222.030194 345.958167,290.625781 C315.748917,305.323283 300.644292,312.672033 300.644292,312.672033 Z" id="Combined-Shape"></path>
                        <path d="M3.02418768,97.4606575 C22.0822181,131.197823 35.9791595,155.195772 44.715012,169.454503 C53.4508645,183.713235 62.9890409,197.966282 73.3295412,212.213645 L105.851242,190.811244 L55.8775078,104.791605 C49.057727,93.0527364 35.0379567,87.5747486 22.066259,91.580432 L3.02418768,97.4606575 L3.02418768,97.4606575 Z" id="Path-5"></path>
                    </g>
                </g>
            </g>
            <g id="EkamPOS" transform="translate(659.4393, 183.5265)" fill="#70B56A" fill-rule="nonzero">
                <path d="M1.13686838e-13,193.766764 C1.13686838e-13,197.681244 0.875607386,201.544218 2.62682216,205.355685 C4.37803693,209.167153 6.69582119,212.618076 9.58017493,215.708455 C12.4645287,218.798834 15.7609329,221.322643 19.4693878,223.279883 C23.1778426,225.237123 26.8862974,226.215743 30.5947522,226.215743 L150.19242,226.215743 C152.252672,226.215743 153.282799,225.185617 153.282799,223.125364 L153.282799,189.131195 C153.282799,187.070943 152.252672,186.040816 150.19242,186.040816 L47.9008746,186.040816 C45.840622,186.040816 44.8104956,185.01069 44.8104956,182.950437 L44.8104956,138.139942 C44.8104956,136.079689 45.840622,135.049563 47.9008746,135.049563 L142.77551,135.049563 C144.835763,135.049563 145.865889,134.019436 145.865889,131.959184 L145.865889,96.4198251 C145.865889,94.3595724 144.835763,93.3294461 142.77551,93.3294461 L47.9008746,93.3294461 C45.840622,93.3294461 44.8104956,92.2993197 44.8104956,90.2390671 L44.8104956,48.2099125 C44.8104956,45.9436346 45.840622,44.8104956 47.9008746,44.8104956 L150.19242,44.8104956 C152.252672,44.8104956 153.282799,43.7803693 153.282799,41.7201166 L153.282799,7.72594752 C153.282799,5.66569485 151.943635,4.63556851 149.265306,4.63556851 L44.5014577,4.63556851 C30.079689,4.63556851 19.0573372,9.01360544 11.4344023,17.7696793 C3.81146744,26.5257532 1.13686838e-13,37.9086492 1.13686838e-13,51.9183673 L1.13686838e-13,193.766764 Z" id="Path"></path>
                <path d="M228.069971,124.542274 C226.421769,126.602527 225.082604,128.817298 224.052478,131.186589 C223.022352,133.555879 222.507289,135.564626 222.507289,137.212828 C222.507289,139.479106 223.022352,141.79689 224.052478,144.166181 C225.082604,146.535471 226.318756,148.64723 227.760933,150.501458 L281.533528,223.434402 C282.975705,225.28863 284.726919,226.215743 286.787172,226.215743 L326.653061,226.215743 C328.301263,226.215743 328.610301,225.494655 327.580175,224.052478 L266.390671,140.921283 C265.97862,140.509232 265.515063,139.891156 265,139.067055 C264.484937,138.242954 264.227405,137.624879 264.227405,137.212828 C264.227405,136.800777 264.484937,136.285714 265,135.667638 C265.515063,135.049563 265.97862,134.5345 266.390671,134.122449 L324.180758,68.2973761 C325.004859,67.473275 325.365403,66.7521866 325.262391,66.1341108 C325.159378,65.516035 324.592809,65.2069971 323.562682,65.2069971 L283.387755,65.2069971 C281.121477,65.2069971 279.370262,66.0310982 278.134111,67.6793003 L228.069971,124.542274 Z M178.623907,7.72594752 L178.623907,190.985423 L178.623907,191.603499 L178.623907,223.125364 C178.623907,225.185617 179.654033,226.215743 181.714286,226.215743 L213.236152,226.215743 C215.296404,226.215743 216.326531,225.185617 216.326531,223.125364 L216.326531,7.72594752 C216.326531,5.66569485 215.296404,4.63556851 213.236152,4.63556851 L181.714286,4.63556851 C179.654033,4.63556851 178.623907,5.66569485 178.623907,7.72594752 Z" id="Shape"></path>
                <path d="M349.212828,68.2973761 L349.212828,99.819242 C349.212828,101.879495 350.242954,102.909621 352.303207,102.909621 L433.580175,102.909621 C436.876579,102.909621 439.554908,104.351798 441.61516,107.236152 C443.675413,110.120505 444.705539,113.004859 444.705539,115.889213 C444.705539,119.391642 443.108844,122.430515 439.915452,125.005831 C436.72206,127.581147 432.447036,128.868805 427.090379,128.868805 L375.48105,128.868805 C369.300292,128.868805 364.046647,130.620019 359.720117,134.122449 C355.393586,137.624879 351.891156,141.899903 349.212828,146.947522 C346.5345,151.995141 344.577259,157.506317 343.341108,163.48105 C342.104956,169.455782 341.48688,174.915452 341.48688,179.860058 C341.48688,182.538387 341.898931,186.452867 342.723032,191.603499 C343.547133,196.75413 345.040816,201.904762 347.204082,207.055394 C349.367347,212.206025 352.40622,216.687075 356.3207,220.498542 C360.23518,224.31001 365.282799,226.215743 371.463557,226.215743 L479.317784,226.215743 C481.378037,226.215743 482.408163,225.185617 482.408163,223.125364 L482.408163,121.142857 C482.408163,114.550049 481.635569,107.95724 480.090379,101.364431 C478.54519,94.7716229 476.072886,88.7968902 472.673469,83.4402332 C469.274052,78.0835763 464.844509,73.7055394 459.38484,70.3061224 C453.92517,66.9067055 447.280855,65.2069971 439.451895,65.2069971 L352.303207,65.2069971 C350.242954,65.2069971 349.212828,66.2371234 349.212828,68.2973761 Z M388.460641,190.058309 C384.752187,190.058309 381.867833,188.719145 379.80758,186.040816 C377.747328,183.362488 376.717201,180.272109 376.717201,176.769679 C376.717201,173.885326 377.644315,171.258503 379.498542,168.889213 C381.35277,166.519922 383.72206,165.335277 386.606414,165.335277 L441.61516,165.335277 C443.675413,165.335277 444.705539,166.365403 444.705539,168.425656 L444.705539,186.96793 C444.705539,189.028183 443.675413,190.058309 441.61516,190.058309 L388.460641,190.058309 Z" id="Shape"></path>
                <path d="M507.131195,223.125364 C507.131195,225.185617 508.161322,226.215743 510.221574,226.215743 L541.74344,226.215743 C543.803693,226.215743 544.833819,225.185617 544.833819,223.125364 L544.833819,108.781341 C544.833819,106.309038 545.606414,104.145773 547.151603,102.291545 C548.696793,100.437318 550.602527,99.5102041 552.868805,99.5102041 L581.300292,99.5102041 C586.038873,99.5102041 590.41691,101.209913 594.434402,104.609329 C598.451895,108.008746 600.460641,111.768707 600.460641,115.889213 L600.460641,223.125364 C600.460641,225.185617 601.490768,226.215743 603.55102,226.215743 L635.072886,226.215743 C637.133139,226.215743 638.163265,225.185617 638.163265,223.125364 L638.163265,115.889213 C638.163265,110.532556 639.965986,106.463557 643.571429,103.682216 C647.176871,100.900875 650.833819,99.5102041 654.542274,99.5102041 L674.938776,99.5102041 C677.205053,99.5102041 679.62585,99.9737609 682.201166,100.900875 C684.776482,101.827988 687.145773,103.218659 689.309038,105.072886 C691.472303,106.927114 693.275024,109.141885 694.717201,111.717201 C696.159378,114.292517 696.880466,117.228377 696.880466,120.524781 L696.880466,223.125364 C696.880466,225.185617 698.013605,226.215743 700.279883,226.215743 L731.492711,226.215743 C733.552964,226.215743 734.58309,225.185617 734.58309,223.125364 L734.58309,116.507289 C734.58309,110.738581 733.19242,104.815355 730.411079,98.7376093 C727.629738,92.6598639 723.715258,87.148688 718.667638,82.2040816 C713.620019,77.2594752 707.59378,73.1904762 700.588921,69.9970845 C693.584062,66.8036929 685.858115,65.2069971 677.411079,65.2069971 L655.469388,65.2069971 C654.233236,65.2069971 651.503401,65.361516 647.279883,65.6705539 C643.056365,65.9795918 638.884354,67.2672498 634.763848,69.5335277 C632.49757,70.563654 630.591837,71.7998056 629.046647,73.2419825 C627.501458,74.6841594 626.2138,76.0233236 625.183673,77.2594752 C624.153547,78.4956268 623.27794,79.4742468 622.556851,80.1953353 C621.835763,80.9164237 621.269193,81.2769679 620.857143,81.2769679 C620.445092,81.2769679 619.569485,80.6073858 618.230321,79.2682216 C616.891156,77.9290573 615.706511,76.7444121 614.676385,75.7142857 C612.616132,73.654033 609.319728,71.3877551 604.787172,68.9154519 C600.254616,66.4431487 595.31001,65.2069971 589.953353,65.2069971 L525.982507,65.2069971 C521.449951,65.2069971 517.174927,67.0097182 513.157434,70.6151603 C509.139942,74.2206025 507.131195,78.5986395 507.131195,83.7492711 L507.131195,223.125364 Z" id="Path"></path>
                <path d="M759.306122,11.1253644 L759.306122,223.125364 C759.306122,225.185617 760.336249,226.215743 762.396501,226.215743 L801.026239,226.215743 C803.086492,226.215743 804.116618,225.185617 804.116618,223.125364 L804.116618,152.355685 C804.116618,150.295432 805.146744,149.265306 807.206997,149.265306 L860.979592,149.265306 C872.517007,149.265306 882.303207,147.565598 890.338192,144.166181 C898.373178,140.766764 904.862974,135.873664 909.80758,129.48688 C914.752187,123.100097 918.357629,115.477162 920.623907,106.618076 C922.890185,97.7589893 924.023324,87.8697765 924.023324,76.9504373 C924.023324,66.4431487 922.890185,56.7599611 920.623907,47.9008746 C918.357629,39.0417881 914.752187,31.4188533 909.80758,25.03207 C904.862974,18.6452867 898.373178,13.649174 890.338192,10.0437318 C882.303207,6.4382896 872.517007,4.63556851 860.979592,4.63556851 L762.396501,4.63556851 C760.336249,4.63556851 759.306122,5.66569485 759.306122,7.72594752 L759.306122,11.1253644 Z M866.233236,44.8104956 C869.941691,44.8104956 872.877551,46.0981535 875.040816,48.6734694 C877.204082,51.2487852 878.800777,54.2876579 879.830904,57.7900875 C880.86103,61.292517 881.530612,64.8464529 881.83965,68.451895 C882.148688,72.0573372 882.303207,74.8901846 882.303207,76.9504373 C882.303207,79.01069 882.148688,81.8435374 881.83965,85.4489796 C881.530612,89.0544218 880.86103,92.6083576 879.830904,96.1107872 C878.800777,99.6132167 877.204082,102.652089 875.040816,105.227405 C872.877551,107.802721 869.941691,109.090379 866.233236,109.090379 L807.206997,109.090379 C805.146744,109.090379 804.116618,108.060253 804.116618,106 L804.116618,47.9008746 C804.116618,45.840622 805.146744,44.8104956 807.206997,44.8104956 L866.233236,44.8104956 Z" id="Shape"></path>
                <path d="M938.857143,117.125364 C938.857143,129.280855 938.960155,139.788144 939.166181,148.64723 C939.372206,157.506317 939.990282,164.717201 941.020408,170.279883 C942.66861,178.314869 944.419825,185.525753 946.274052,191.912536 C948.12828,198.29932 950.600583,203.552964 953.690962,207.673469 C957.811467,213.030126 962.962099,217.717201 969.142857,221.734694 C975.323615,225.752187 981.916424,228.585034 988.921283,230.233236 C993.865889,231.263362 1000.35569,231.881438 1008.39067,232.087464 C1016.42566,232.293489 1026.00583,232.396501 1037.1312,232.396501 C1048.25656,232.396501 1057.83673,232.293489 1065.87172,232.087464 C1073.90671,231.881438 1080.3965,231.263362 1085.34111,230.233236 C1092.34597,228.585034 1098.93878,225.752187 1105.11953,221.734694 C1111.30029,217.717201 1116.45092,213.030126 1120.57143,207.673469 C1123.66181,203.552964 1126.13411,198.29932 1127.98834,191.912536 C1129.84257,185.525753 1131.59378,178.314869 1133.24198,170.279883 C1134.27211,164.717201 1134.89018,157.506317 1135.09621,148.64723 C1135.30224,139.788144 1135.40525,129.280855 1135.40525,117.125364 L1135.40525,115.271137 C1135.40525,103.115646 1135.30224,92.6083576 1135.09621,83.7492711 C1134.89018,74.8901846 1134.27211,67.6793003 1133.24198,62.1166181 C1131.59378,54.0816327 1129.84257,46.8707483 1127.98834,40.483965 C1126.13411,34.0971817 1123.66181,28.8435374 1120.57143,24.7230321 C1116.45092,19.3663751 1111.30029,14.6793003 1105.11953,10.6618076 C1098.93878,6.64431487 1092.34597,3.81146744 1085.34111,2.16326531 C1080.3965,1.13313897 1073.90671,0.515063168 1065.87172,0.309037901 C1057.83673,0.103012634 1048.25656,0 1037.1312,0 C1026.00583,0 1016.42566,0.103012634 1008.39067,0.309037901 C1000.35569,0.515063168 993.865889,1.13313897 988.921283,2.16326531 C981.916424,3.81146744 975.323615,6.64431487 969.142857,10.6618076 C962.962099,14.6793003 957.811467,19.3663751 953.690962,24.7230321 C950.600583,28.8435374 948.12828,34.0971817 946.274052,40.483965 C944.419825,46.8707483 942.66861,54.0816327 941.020408,62.1166181 C939.990282,67.6793003 939.372206,74.8901846 939.166181,83.7492711 C938.960155,92.6083576 938.857143,103.115646 938.857143,115.271137 L938.857143,117.125364 Z M1037.1312,42.6472303 C1043.51798,42.6472303 1049.59572,42.8017493 1055.36443,43.1107872 C1061.13314,43.4198251 1066.07775,44.0894072 1070.19825,45.1195335 C1077.61516,46.9737609 1082.8688,50.6307094 1085.95918,56.090379 C1089.04956,61.5500486 1090.59475,69.739553 1090.59475,80.6588921 L1090.59475,151.737609 C1090.59475,162.656948 1089.04956,170.846453 1085.95918,176.306122 C1082.8688,181.765792 1077.61516,185.422741 1070.19825,187.276968 C1066.07775,188.307094 1061.13314,188.976676 1055.36443,189.285714 C1049.59572,189.594752 1043.51798,189.749271 1037.1312,189.749271 C1030.74441,189.749271 1024.66667,189.594752 1018.89796,189.285714 C1013.12925,188.976676 1008.18465,188.307094 1004.06414,187.276968 C996.64723,185.422741 991.393586,181.765792 988.303207,176.306122 C985.212828,170.846453 983.667638,162.656948 983.667638,151.737609 L983.667638,80.6588921 C983.667638,69.739553 985.212828,61.5500486 988.303207,56.090379 C991.393586,50.6307094 996.64723,46.9737609 1004.06414,45.1195335 C1008.18465,44.0894072 1013.12925,43.4198251 1018.89796,43.1107872 C1024.66667,42.8017493 1030.74441,42.6472303 1037.1312,42.6472303 Z" id="Shape"></path>
                <path d="M1251.91254,134.122449 C1257.06317,134.122449 1261.54422,134.586006 1265.35569,135.51312 C1269.16715,136.440233 1272.10301,138.036929 1274.16327,140.303207 C1276.63557,143.187561 1278.07775,146.432459 1278.4898,150.037901 C1278.90185,153.643343 1279.10787,157.094266 1279.10787,160.390671 C1279.10787,162.656948 1279.00486,164.820214 1278.79883,166.880466 C1278.59281,168.940719 1277.97473,171.103984 1276.94461,173.370262 C1275.91448,175.842566 1274.26628,178.5724 1272,181.559767 C1269.73372,184.547133 1267.05539,186.040816 1263.96501,186.040816 L1164.45481,186.040816 C1162.39456,186.040816 1161.36443,187.070943 1161.36443,189.131195 L1161.36443,223.125364 C1161.36443,225.185617 1162.39456,226.215743 1164.45481,226.215743 L1276.94461,226.215743 C1281.47716,226.215743 1286.26725,224.825073 1291.31487,222.043732 C1296.36249,219.262391 1300.63751,216.429543 1304.13994,213.54519 C1315.67736,203.449951 1322.27017,189.028183 1323.91837,170.279883 C1324.33042,168.631681 1324.53644,166.880466 1324.53644,165.026239 C1324.53644,162.965986 1324.53644,160.802721 1324.53644,158.536443 C1324.53644,153.797862 1324.22741,148.853256 1323.60933,143.702624 C1322.99125,138.551992 1321.90962,133.607386 1320.36443,128.868805 C1318.81924,124.130224 1316.862,119.70068 1314.49271,115.580175 C1312.12342,111.45967 1309.18756,107.95724 1305.68513,105.072886 C1299.7104,100.12828 1293.2206,96.7803693 1286.21574,95.0291545 C1279.21088,93.2779397 1272.51506,92.4023324 1266.12828,92.4023324 L1231.51603,92.4023324 C1226.77745,92.4023324 1222.39942,92.1963071 1218.38192,91.7842566 C1214.36443,91.372206 1211.22255,90.0330418 1208.95627,87.7667638 C1206.48397,85.0884354 1205.04179,81.9980564 1204.62974,78.4956268 C1204.21769,74.9931973 1204.01166,71.5937804 1204.01166,68.2973761 C1204.01166,66.2371234 1204.11467,64.1768707 1204.3207,62.1166181 C1204.52672,60.0563654 1205.1448,57.9961127 1206.17493,55.9358601 C1207.20505,53.6695821 1208.90476,51.2487852 1211.27405,48.6734694 C1213.64334,46.0981535 1216.27017,44.8104956 1219.15452,44.8104956 L1308.46647,44.8104956 C1310.52672,44.8104956 1311.55685,43.7803693 1311.55685,41.7201166 L1311.55685,7.72594752 C1311.55685,5.66569485 1310.52672,4.63556851 1308.46647,4.63556851 L1206.17493,4.63556851 C1201.23032,4.63556851 1196.1827,5.97473275 1191.03207,8.65306122 C1185.88144,11.3313897 1181.55491,14.1127308 1178.05248,16.9970845 C1166.10301,26.8862974 1159.40719,40.7930029 1157.96501,58.7172012 C1157.55296,60.5714286 1157.34694,62.425656 1157.34694,64.2798834 C1157.34694,66.1341108 1157.34694,68.0913508 1157.34694,70.1516035 C1157.34694,74.8901846 1157.70748,79.6802721 1158.42857,84.5218659 C1159.14966,89.3634597 1160.2828,94.1020408 1161.82799,98.7376093 C1163.37318,103.373178 1165.33042,107.699708 1167.69971,111.717201 C1170.069,115.734694 1173.00486,119.185617 1176.50729,122.069971 C1182.48202,126.808552 1189.12634,130.001944 1196.44023,131.650146 C1203.75413,133.298348 1210.60447,134.122449 1216.99125,134.122449 L1251.91254,134.122449 Z" id="Path"></path>
            </g>
        </g>
    </g>
</svg>